<svg height='300px' width='300px'  fill="#000000" xmlns="http://www.w3.org/2000/svg" viewBox="0 0 64 64" x="0px" y="0px"><title>12-Exercise</title><g data-name="12-Exercise"><path d="M17,30a1,1,0,0,1-.484-.126L8.806,25.592a1,1,0,0,1-1.513.115l-3-3A1,1,0,0,1,4,22V17a1,1,0,0,1,.219-.625l4-5a1,1,0,0,1,1.055-.336l7,2a1,1,0,0,1,.558.406l2,3a1,1,0,0,1,.063,1l-.574,1.146,6.141,3.436a1,1,0,0,1,.376,1.377l-2.974,5.1a1,1,0,0,1-1.336.378l-1.765-.944-.9,1.56A1,1,0,0,1,17,30ZM9.92,23.923l6.7,3.724,1.268-2.209.087-1.459L16.4,22.8A1,1,0,0,1,16,22V19.721l-1-.334V20a1,1,0,0,1-1.316.949l-2.051-.684-.685,2.051a.944.944,0,0,1-.116.239Zm9.838,2.28.863.461L22.6,23.277,18,20.706V21.5l1.607,1.2a1,1,0,0,1,.4.861l-.134,2.232A1,1,0,0,1,19.758,26.2ZM6,21.586,7.845,23.43l1.249-1.873.958-2.873a1,1,0,0,1,1.264-.633L13,18.613V18a1,1,0,0,1,1.316-.949l2.177.726.353-.705L15.372,14.86,9.365,13.145,6,17.351Z"></path><path d="M35,39a1,1,0,0,1-.446-.1L30.764,37H29a1.006,1.006,0,0,1-.555-.168l-3-2,1.11-1.664L29.3,35H31a1,1,0,0,1,.447.1L34.634,36.7l3.973-6.358-12.047-7.1-2.328.624-.517-1.932,2.732-.732a1,1,0,0,1,.767.1l13.294,7.83a1,1,0,0,1,.34,1.392l-5,8A1,1,0,0,1,35,39Z"></path><path d="M41,42a1,1,0,0,1-.446-.1l-6-3,.894-1.79L40.634,39.7l3.935-6.3L39.553,30.9l.894-1.79,6,3a1,1,0,0,1,.4,1.425l-5,8A1,1,0,0,1,41,42Z"></path><path d="M54,49H50a1,1,0,0,1-1-1V45a3,3,0,0,1,3-3h.5l1.708-2.278L44.553,34.9l.894-1.79,14,7a1,1,0,0,1,.366,1.476l-5,7A1,1,0,0,1,54,49Zm-3-2h2.485l4.021-5.629-1.48-.74L53.8,43.6a1,1,0,0,1-.8.4H52a1,1,0,0,0-1,1Z"></path><rect x="46.5" y="34.458" width="2" height="12.083" transform="translate(-9.025 66.983) rotate(-65.556)"></rect><rect x="42.5" y="39.307" width="2" height="5.385" transform="translate(-11.652 66.79) rotate(-68.199)"></rect><path d="M50,49H45a1,1,0,0,1-1-1V45a3,3,0,0,1,3-3h5v2H47a1,1,0,0,0-1,1v2h4Z"></path><path d="M26,37H21a1,1,0,0,1-1-1V28h2v7h3V31a1,1,0,0,1,1-1h3v2H27v4A1,1,0,0,1,26,37Z"></path><path d="M25,49H18a1,1,0,0,1-1-1V47a1,1,0,0,1,.293-.707l2-2A1,1,0,0,1,20,44V36h2v9a1,1,0,0,1-1,1h-.586l-1,1H24V36h2V48A1,1,0,0,1,25,49Z"></path><path d="M18,49H13a1,1,0,0,1-1-1V47a1,1,0,0,1,.293-.707l2-2A1,1,0,0,1,15,44h1V29h2V45a1,1,0,0,1-1,1H15.414l-1,1H18Z"></path><rect x="17" y="33" width="4" height="2"></rect><rect x="31" y="47" width="2" height="2"></rect><path d="M63,53H1a1,1,0,0,1-1-1V48a1,1,0,0,1,1-1H29v2H2v2H62V49H35V47H63a1,1,0,0,1,1,1v4A1,1,0,0,1,63,53Z"></path><rect x="11" y="32" width="2" height="7"></rect><rect x="11" y="41" width="2" height="2"></rect><rect x="7" y="28" width="2" height="7"></rect><rect x="7" y="37" width="2" height="2"></rect></g></svg>